<svg width="22" height="21" viewBox="0 0 22 21" fill="none" xmlns="http://www.w3.org/2000/svg">
<path d="M10.8512 7.875L13.625 10.64V10.5C13.625 9.80381 13.3484 9.13613 12.8562 8.64384C12.3639 8.15156 11.6962 7.875 11 7.875H10.8512ZM7.08875 8.575L8.445 9.93125C8.40125 10.115 8.375 10.2987 8.375 10.5C8.375 11.1962 8.65156 11.8639 9.14384 12.3562C9.63613 12.8484 10.3038 13.125 11 13.125C11.1925 13.125 11.385 13.0988 11.5687 13.055L12.925 14.4112C12.3387 14.7 11.6913 14.875 11 14.875C9.83968 14.875 8.72688 14.4141 7.90641 13.5936C7.08594 12.7731 6.625 11.6603 6.625 10.5C6.625 9.80875 6.8 9.16125 7.08875 8.575V8.575ZM2.25 3.73625L4.245 5.73125L4.63875 6.125C3.195 7.2625 2.0575 8.75 1.375 10.5C2.88875 14.3412 6.625 17.0625 11 17.0625C12.3562 17.0625 13.6512 16.8 14.8325 16.3275L15.2087 16.695L17.7637 19.25L18.875 18.1387L3.36125 2.625L2.25 3.73625ZM11 6.125C12.1603 6.125 13.2731 6.58594 14.0936 7.40641C14.9141 8.22688 15.375 9.33968 15.375 10.5C15.375 11.06 15.2612 11.6025 15.06 12.0925L17.6237 14.6562C18.9362 13.5625 19.9862 12.1275 20.625 10.5C19.1112 6.65875 15.375 3.9375 11 3.9375C9.775 3.9375 8.6025 4.15625 7.5 4.55L9.39875 6.43125C9.8975 6.23875 10.4313 6.125 11 6.125Z" fill="#5C5C5C"/>
</svg>
