<svg width="157" height="182" viewBox="0 0 157 182" fill="none" xmlns="http://www.w3.org/2000/svg">
<g clip-path="url(#clip0_1035_202)">
<path d="M117.134 0.348633V88.5552L31.893 0.348633H0V105.465H39.8663V67.2932L124.722 157.464H157V0.348633H117.134Z" fill="#505668"/>
<path d="M39.8663 117.56H0V157.426H39.8663V117.56Z" fill="#505668"/>
<path d="M4.77625 122.259C14.868 122.259 24.9983 122.259 35.09 122.259V152.573H4.77625V122.259ZM8.01177 125.494V149.337H31.8545V125.494H8.01177Z" fill="#76878D"/>
<path d="M13.9436 143.366V131.426H25.8842V143.366H13.9436ZM17.2176 140.131H22.6872V134.661H17.2176V140.131Z" fill="#DDAE4F"/>
<path d="M127.11 14.0608V20.9555H119.945V14.0608H121.948V5.16309C132.002 5.16309 142.093 5.16309 152.147 5.16309V91.2126H154.15V98.1074H146.985V91.2126H148.988V8.36009H125.145V14.0608H127.11Z" fill="#DDAE4F"/>
<path d="M29.8515 93.2921V86.3974H37.0159V93.2921H35.0515V100.649C24.9983 100.649 14.9065 100.649 4.85327 100.649V54.1962L13.8665 42.3326V15.9092H26.9627L79.4629 70.4124L80.6185 85.8581L131.385 138.589H139.975V125.108H137.972V118.213H145.136V125.108H143.133V141.748H129.999L77.4985 87.2448L76.3429 71.799L25.576 19.1062H17.025V43.3726L8.01176 55.2362V97.4521H31.8545V93.2536H29.8515V93.2921Z" fill="#DDAE4F"/>
<path d="M65.8275 67.6777L70.6038 72.6466L65.4809 77.6154L60.7046 72.6466L62.1298 71.2599L26.0383 33.8203V67.6777H28.0027V74.5725H20.8768V67.6777H22.8413V28.7744H25.576L64.4023 69.0644L65.8275 67.6777Z" fill="#64939B"/>
<path d="M128.959 47.9568V41.1006H136.123V47.9953H134.12L134.043 128.883H131.308L92.8672 88.9786L91.442 90.3653L86.6658 85.3965L91.8272 80.4276L96.6035 85.3965L95.1783 86.7831L130.885 123.838L130.962 47.9953L128.959 47.9568Z" fill="#64939B"/>
<path d="M18.9894 65.7136V58.8189H11.8636V65.7136H13.828V91.4052H25.9997V86.0897L35.0515 75.9209V57.3937L126.648 152.611H152.147V113.592L143.133 101.728V15.9097C139.051 15.9097 135.006 15.9097 130.962 15.9097V24.5377L121.948 36.4013L121.871 100.226L30.3138 5.16309C21.8398 5.16309 13.3273 5.16309 4.85329 5.16309V31.8176H2.85034V38.7124H10.0147V31.8176H8.01177V8.36009H28.9656L122.334 105.31L125.068 105.426L125.145 37.4798L134.159 25.6162V19.1067H139.975V102.768L148.988 114.632V149.414H128.034L34.5893 52.3478L31.8545 52.3863V74.8424L22.8413 85.0497V88.2467H17.025V65.7136H18.9894Z" fill="#76878D"/>
<path d="M11.9021 169.52V181.576H8.55103L3.96737 176.106V181.576H0V169.52H3.35108L7.93474 174.989V169.52H11.9021Z" fill="#DDAE4F"/>
<path d="M28.5033 178.533V181.615H18.4501V169.559H28.2722V172.64H22.456V174.065H27.5789V176.993H22.456V178.572H28.5033V178.533Z" fill="#DDAE4F"/>
<path d="M42.2159 181.615L40.1359 178.379L38.0945 181.615H33.4723L37.8248 175.529L33.6264 169.559H38.21L40.2515 172.602L42.2544 169.559H46.607L42.4085 175.375L46.8381 181.615H42.2159Z" fill="#DDAE4F"/>
<path d="M62.4763 169.52H67.2526C68.5237 169.52 69.6022 169.789 70.6036 170.29C71.5666 170.791 72.337 171.522 72.8762 172.447C73.4155 173.371 73.6851 174.411 73.6851 175.567C73.6851 176.722 73.4155 177.762 72.8762 178.687C72.337 179.611 71.5666 180.305 70.6036 180.844C69.6407 181.345 68.5237 181.614 67.2526 181.614H62.4763V169.52ZM67.1755 180.805C68.2926 180.805 69.2555 180.574 70.1414 180.151C70.9888 179.727 71.6436 179.072 72.1059 178.302C72.5681 177.493 72.7992 176.607 72.7992 175.567C72.7992 174.527 72.5681 173.641 72.1059 172.832C71.6436 172.023 70.9888 171.407 70.1414 170.983C69.294 170.56 68.2926 170.328 67.1755 170.328H63.3622V180.805H67.1755Z" fill="white"/>
<path d="M81.3119 169.52H82.1978V181.576H81.3119V169.52Z" fill="white"/>
<path d="M99.6464 175.606H100.494V180.112C99.9545 180.613 99.3382 180.998 98.5679 181.268C97.7975 181.538 97.0272 181.653 96.1798 181.653C94.9857 181.653 93.9072 181.383 92.9442 180.844C91.9813 180.305 91.2494 179.573 90.6717 178.649C90.1324 177.724 89.8628 176.684 89.8628 175.529C89.8628 174.373 90.1324 173.333 90.6717 172.409C91.2109 171.484 91.9813 170.752 92.9442 170.213C93.9072 169.674 94.9857 169.404 96.1798 169.404C97.0657 169.404 97.8746 169.558 98.6064 169.828C99.3382 170.098 99.9931 170.521 100.494 171.061L99.9545 171.638C99.4538 171.138 98.876 170.752 98.2597 170.56C97.6435 170.329 96.9501 170.213 96.1798 170.213C95.1398 170.213 94.2153 170.444 93.3679 170.907C92.5205 171.369 91.8657 171.985 91.4035 172.794C90.9413 173.603 90.7102 174.527 90.7102 175.49C90.7102 176.492 90.9413 177.378 91.442 178.186C91.9042 178.995 92.5591 179.65 93.4065 180.112C94.2153 180.575 95.1783 180.806 96.2183 180.806C97.6049 180.806 98.7605 180.421 99.6464 179.689V175.606Z" fill="white"/>
<path d="M108.968 169.52H109.854V181.576H108.968V169.52Z" fill="white"/>
<path d="M120.947 170.328H116.594V169.52H126.147V170.328H121.794V181.614H120.947V170.328Z" fill="white"/>
<path d="M139.821 178.186H132.811L131.27 181.576H130.307L135.854 169.52H136.739L142.286 181.576H141.362L139.821 178.186ZM139.474 177.454L136.316 170.482L133.157 177.454H139.474Z" fill="white"/>
<path d="M149.104 169.52H149.99V180.805H156.923V181.614H149.104V169.52Z" fill="white"/>
</g>
<defs>
<clipPath id="clip0_1035_202">
<rect width="157" height="181.343" fill="white" transform="translate(0 0.348633)"/>
</clipPath>
</defs>
</svg>
